<?xml version="1.0" encoding="UTF-8"?>
<svg version="1.1" xmlns="http://www.w3.org/2000/svg" width="1024" height="1024">
<path d="M0 0 C337.92 0 675.84 0 1024 0 C1024 337.92 1024 675.84 1024 1024 C686.08 1024 348.16 1024 0 1024 C0 686.08 0 348.16 0 0 Z " fill="#BEA9E4" transform="translate(0,0)"/>
<path d="M0 0 C0.33 0 0.66 0 1 0 C1 163.02 1 326.04 1 494 C-161.69 494 -324.38 494 -492 494 C-492 493.67 -492 493.34 -492 493 C-491.18249268 492.96036133 -490.36498535 492.92072266 -489.52270508 492.87988281 C-469.83000827 491.88625869 -450.49907126 490.04397909 -431 487 C-429.95408691 486.84273437 -428.90817383 486.68546875 -427.83056641 486.5234375 C-392.93066971 481.26813323 -358.75922043 472.12124513 -326 459 C-324.33517578 458.34523682 -324.33517578 458.34523682 -322.63671875 457.67724609 C-271.57973198 437.55119528 -223.44430296 409.3927644 -181.85546875 373.453125 C-179.01226447 371.01053637 -176.11117377 368.65782084 -173.1875 366.3125 C-169.16557875 363.04250316 -165.48664026 359.59987178 -161.87890625 355.8828125 C-160.07018529 354.07033121 -158.20024519 352.40790864 -156.25 350.75 C-148.59887336 344.15524193 -141.44383421 336.87664243 -134.90234375 329.18359375 C-132.86659747 326.84687471 -130.76375978 324.58483197 -128.64746094 322.32128906 C-123.13506011 316.42169557 -117.95901879 310.37738221 -113 304 C-111.75112214 302.45742417 -110.50108664 300.91578498 -109.25 299.375 C-90.4990632 275.81799784 -74.58619217 250.51136266 -60.16259766 224.11669922 C-59.12509558 222.22775697 -58.07171474 220.34902663 -57.01171875 218.47265625 C-50.1439167 206.05942397 -44.5873361 193.02727639 -39 180 C-38.55333984 178.96552734 -38.10667969 177.93105469 -37.64648438 176.86523438 C-19.62354549 134.77524509 -8.18438879 88.38536962 -3 43 C-2.90235352 42.17419434 -2.80470703 41.34838867 -2.70410156 40.49755859 C-1.13218686 27.02513813 -0.45370751 13.55220642 0 0 Z " fill="#F4F4F4" transform="translate(1023,530)"/>
<path d="M0 0 C162.69 0 325.38 0 493 0 C493 160.38 493 320.76 493 486 C492.67 486 492.34 486 492 486 C491.96559814 485.33508545 491.93119629 484.6701709 491.89575195 483.98510742 C489.49096121 440.0091278 481.3143759 396.96834783 468 355 C467.64856934 353.89188965 467.29713867 352.7837793 466.93505859 351.64208984 C446.90598953 289.44655961 414.12417107 231.00103028 371.36816406 181.59033203 C369.96987288 179.96498072 368.58883807 178.32625422 367.2109375 176.68359375 C355.16760481 162.38021699 342.4502707 148.15504743 328.2421875 135.96484375 C326.07823646 134.06855913 323.97452511 132.11668502 321.87475586 130.14990234 C316.03003564 124.6943227 309.94380258 119.68417765 303.61328125 114.8046875 C301.20572799 112.94852693 298.83134868 111.06023391 296.48046875 109.1328125 C268.67219395 86.36020315 237.26478572 67.40966156 204.87597656 51.89892578 C202.9203155 50.96181698 200.97206213 50.01023665 199.0234375 49.05859375 C136.93158422 18.99150953 68.63849907 4.09846239 0 1 C0 0.67 0 0.34 0 0 Z " fill="#F4F4F5" transform="translate(531,0)"/>
<path d="M0 0 C162.36 0 324.72 0 492 0 C492 0.33 492 0.66 492 1 C490.86385254 1.06993164 489.72770508 1.13986328 488.55712891 1.21191406 C466.86072229 2.56658812 445.40237882 4.0359554 424 8 C422.91879883 8.19352051 421.83759766 8.38704102 420.72363281 8.58642578 C397.26868614 12.79445922 374.67480449 18.68672704 352 26 C350.41010254 26.51022705 350.41010254 26.51022705 348.78808594 27.03076172 C330.6704311 32.90351556 313.34753089 40.1970208 296 48 C294.37762945 48.71750509 292.75523743 49.43496164 291.1328125 50.15234375 C278.98296378 55.61277512 267.51421452 62.3273863 256 69 C254.76757568 69.70938721 254.76757568 69.70938721 253.51025391 70.43310547 C244.45338182 75.64824223 235.59721868 81.04880115 227 87 C226.26378418 87.50547363 225.52756836 88.01094727 224.76904297 88.53173828 C213.88613704 96.01090146 203.25603007 103.6815071 193 112 C192.03835937 112.76828125 191.07671875 113.5365625 190.0859375 114.328125 C184.38447504 118.92141589 178.92330495 123.72350009 173.53515625 128.6796875 C171.46674242 130.57281203 169.37594124 132.42251704 167.25 134.25 C156.72612205 143.43682788 146.74422789 153.03034812 137.41748047 163.4296875 C136.00190935 164.99788478 134.56908485 166.54814464 133.12890625 168.09375 C127.1478039 174.52011105 121.48635073 181.14432868 116 188 C115.07759625 189.13083957 114.15437804 190.26101515 113.23046875 191.390625 C91.34783261 218.26919732 73.19316786 247.39954281 57 278 C56.4438501 279.05018311 56.4438501 279.05018311 55.87646484 280.12158203 C45.26840078 300.32814309 36.64788738 321.52035137 29 343 C28.5366626 344.28922363 28.5366626 344.28922363 28.06396484 345.60449219 C11.75321855 391.34569132 3.5437697 439.60880255 1 488 C0.67 488 0.34 488 0 488 C0 326.96 0 165.92 0 0 Z " fill="#F4F4F4" transform="translate(0,0)"/>
<path d="M0 0 C0.33 0 0.66 0 1 0 C1.03963867 0.6398584 1.07927734 1.2797168 1.12011719 1.93896484 C2.92271915 30.20794638 5.63938474 58.35374157 12 86 C12.15553345 86.68360596 12.31106689 87.36721191 12.47131348 88.0715332 C17.01977936 108.06267632 21.95446319 127.7185453 29 147 C29.34498535 147.96583008 29.6899707 148.93166016 30.04541016 149.92675781 C37.38685072 170.463993 45.86734214 190.59779376 55.94140625 209.95214844 C57.10410808 212.20139727 58.23939638 214.46351855 59.375 216.7265625 C72.40467563 242.43905037 87.99980087 267.36967513 106.19018555 289.76049805 C107.93411862 291.91847701 109.63003141 294.10642378 111.3125 296.3125 C118.7934245 305.94292091 126.84780074 315.03551382 135.1640625 323.9453125 C137.65278002 326.61357677 140.08179519 329.33001587 142.5 332.0625 C149.50668811 339.87031578 156.90110216 347.37969175 164.8984375 354.17578125 C167.01857107 356.01612024 169.06822093 357.92218022 171.11669922 359.84155273 C177.53426995 365.83426324 184.27239697 371.28089148 191.23095703 376.62939453 C192.96809024 377.9752772 194.68760534 379.34057865 196.40234375 380.71484375 C243.3187577 418.26011894 297.85173445 446.6717474 355 465 C356.04446289 465.33837891 357.08892578 465.67675781 358.16503906 466.02539062 C372.13840707 470.50474795 386.24813482 474.12512323 400.5625 477.3125 C401.67053986 477.56025681 401.67053986 477.56025681 402.80096436 477.8130188 C413.80880118 480.25748238 424.85949867 482.26256454 436 484 C437.019729 484.15911865 438.03945801 484.3182373 439.09008789 484.48217773 C455.6555094 486.96752627 472.29098716 488.04885844 489 489 C489 489.33 489 489.66 489 490 C327.63 490 166.26 490 0 490 C0 328.3 0 166.6 0 0 Z " fill="#F4F3F4" transform="translate(0,534)"/>
<path d="M0 0 C83.49 0 166.98 0 253 0 C254.16071429 67.32142857 254.16071429 67.32142857 254 92 C249.38 92 244.76 92 240 92 C238.67494779 87.58897094 237.60568476 83.21189455 236.70849609 78.69604492 C232.99104342 60.38392849 225.7090272 44.29370202 209.70703125 33.640625 C190.57341949 22.04449666 169.92014675 20.64666958 148.08178711 20.73925781 C145.04325815 20.75006846 142.00530902 20.73925653 138.96679688 20.7265625 C137.01041538 20.7278828 135.05403424 20.73044252 133.09765625 20.734375 C132.20168228 20.73032654 131.30570831 20.72627808 130.38258362 20.72210693 C124.92743841 20.76247601 120.24111671 21.47009072 115 23 C113.25169954 29.79784837 112.69648184 36.02436434 112.68115234 43.02758789 C112.67110672 44.09204132 112.6610611 45.15649475 112.65071106 46.25320435 C112.62002154 49.74301656 112.60288351 53.23275257 112.5859375 56.72265625 C112.56721442 59.15360666 112.54764016 61.58455065 112.5272522 64.01548767 C112.47604563 70.39236659 112.4363585 76.76926655 112.39910889 83.14624023 C112.35899722 89.66199907 112.3079376 96.17767124 112.2578125 102.69335938 C112.16118909 115.46217751 112.07636876 128.23104547 112 141 C114.5596961 140.85787834 117.11896624 140.71095345 119.67822266 140.5612793 C120.39820938 140.52179924 121.11819611 140.48231918 121.86000061 140.44164276 C127.21972576 140.12279144 132.22398876 139.37076875 137.375 137.8125 C138.1282959 137.59110352 138.8815918 137.36970703 139.65771484 137.14160156 C152.11882286 133.28798308 160.66952806 126.51009315 166.89282227 114.93261719 C173.0423073 102.84586721 174.94381517 90.25582989 177 77 C181.62 77 186.24 77 191 77 C191 126.17 191 175.34 191 226 C186.38 226 181.76 226 177 226 C176.84144531 224.8140625 176.68289063 223.628125 176.51953125 222.40625 C173.80722939 203.17029343 169.4911217 183.23828991 154 170 C143.43936466 163.50746933 131.80078573 161.07803289 119.58203125 160.42578125 C118.84907837 160.3834436 118.11612549 160.34110596 117.36096191 160.29748535 C115.57417479 160.19477969 113.78711214 160.09688599 112 160 C112.03731458 173.85709029 112.0976491 187.7139205 112.18390274 201.57079601 C112.22329995 208.00611025 112.25552658 214.44128922 112.27099609 220.87670898 C112.28621357 227.09496512 112.32074983 233.31284921 112.36830902 239.5309391 C112.38307033 241.89537625 112.39103798 244.25986652 112.39188385 246.62434959 C111.60986431 266.00300508 111.60986431 266.00300508 118.89605713 283.29338074 C126.39116753 290.69824138 135.47005503 291.53363397 145.5 292.1875 C147.16289063 292.3102832 147.16289063 292.3102832 148.859375 292.43554688 C151.57215864 292.63432843 154.28599602 292.81863967 157 293 C157 297.62 157 302.24 157 307 C105.19 307 53.38 307 0 307 C0 302.38 0 297.76 0 293 C1.19496094 292.90203125 2.38992188 292.8040625 3.62109375 292.703125 C15.8398171 291.72844764 15.8398171 291.72844764 27 287 C27.928125 286.443125 28.85625 285.88625 29.8125 285.3125 C40.341622 274.18171389 38.28873722 255.85983414 38.25878906 241.74633789 C38.26150239 239.59672426 38.26506524 237.44711156 38.26940918 235.29750061 C38.27849531 229.48345875 38.27500437 223.66948819 38.26865101 217.85544515 C38.26357079 211.7565284 38.26828813 205.65761756 38.27142334 199.55870056 C38.27505737 189.31752431 38.27027894 179.07637694 38.26074219 168.83520508 C38.24986165 157.014904 38.25338261 145.19467194 38.264395 133.37437254 C38.27348738 123.2058885 38.27474352 113.03742518 38.26951766 102.86893839 C38.26640832 96.80449604 38.26596003 90.74008607 38.27259064 84.67564583 C38.27839177 78.97185874 38.27431671 73.26816014 38.26280212 67.56438255 C38.26017018 65.47792838 38.2608954 63.39146669 38.26532745 61.30501556 C38.93954316 40.68963239 38.93954316 40.68963239 30.9375 22.375 C21.99845 15.14768298 11.01586837 14.9119891 0 14 C0 9.38 0 4.76 0 0 Z " fill="#FEFDFE" transform="translate(471,367)"/>
<path d="M0 0 C50.49 0 100.98 0 153 0 C153 4.62 153 9.24 153 14 C151.20755859 14.16435547 151.20755859 14.16435547 149.37890625 14.33203125 C133.75596032 15.49483181 133.75596032 15.49483181 120.50390625 23.12890625 C114.31377542 30.8303937 113.85077643 40.72335002 113.85282898 50.16918945 C113.84915229 51.08323736 113.8454756 51.99728527 113.8416875 52.9390316 C113.83068829 55.99712056 113.8268132 59.0551755 113.82299805 62.11328125 C113.81673049 64.30817268 113.81008343 66.50306305 113.80308533 68.69795227 C113.7820749 75.90279404 113.7716848 83.10763595 113.76171875 90.3125 C113.75766987 92.79669201 113.75355291 95.2808839 113.74936867 97.76507568 C113.73141432 108.76986755 113.71703619 119.77465485 113.70919226 130.77945876 C113.70775389 132.7909608 113.7063025 134.80246283 113.70483398 136.81396484 C113.70410837 137.8126993 113.70410837 137.8126993 113.7033681 138.8316102 C113.69507713 149.60475702 113.66975378 160.37779246 113.63725331 171.15089071 C113.60409826 182.23205323 113.58649569 193.31315643 113.58297569 204.39436817 C113.58063017 210.60768259 113.57173453 216.82082089 113.54651451 223.03408813 C113.52314958 228.88478688 113.51903447 234.73519457 113.52927589 240.58592796 C113.52976934 242.72476357 113.5235059 244.86361393 113.50971985 247.00240517 C113.17129925 266.48642413 113.17129925 266.48642413 120.625 284.125 C128.93929505 292.25544086 142.07650706 292.51960876 153 294 C153 298.29 153 302.58 153 307 C102.51 307 52.02 307 0 307 C0 302.38 0 297.76 0 293 C1.19496094 292.89042969 2.38992188 292.78085937 3.62109375 292.66796875 C19.14376392 291.71307868 19.14376392 291.71307868 32 284 C35.42369753 278.17387835 38.11692534 272.7018222 38.13422108 265.86565971 C38.13867892 265.04526455 38.14313676 264.22486938 38.14772969 263.37961376 C38.14754533 262.48371347 38.14736097 261.58781318 38.14717102 260.6647644 C38.15084771 259.70876756 38.1545244 258.75277071 38.1583125 257.76780427 C38.16934864 254.55597217 38.17319308 251.34417244 38.17700195 248.13232422 C38.18326667 245.83271685 38.18991348 243.53311049 38.19691467 241.23350525 C38.21795697 233.67390651 38.22831741 226.11430756 38.23828125 218.5546875 C38.24232878 215.95215977 38.2464457 213.34963215 38.25063133 210.74710464 C38.26750038 199.92107597 38.28213486 189.09505022 38.28938007 178.26901054 C38.29128986 175.46091587 38.29321021 172.6528212 38.29516602 169.84472656 C38.29589163 168.79786252 38.29589163 168.79786252 38.2966319 167.72984971 C38.30492806 156.4300874 38.33025876 145.13043109 38.36274669 133.83071505 C38.39585345 122.22078868 38.4134996 110.61092159 38.41702431 99.00094807 C38.41937455 92.48592174 38.42833191 85.97106298 38.45348549 79.45608139 C38.47677534 73.32472009 38.48099553 67.19363659 38.47072411 61.06224251 C38.47022886 58.81530012 38.47654593 56.56834402 38.49028015 54.32144356 C38.50802079 51.24634383 38.50088167 48.1722387 38.48774719 45.09713745 C38.49871644 44.2146215 38.50968568 43.33210554 38.52098733 42.42284667 C38.45399962 35.89619296 36.65708296 30.91057465 34 25 C33.505 23.515 33.505 23.515 33 22 C31.19872037 20.86427268 31.19872037 20.86427268 29 20 C28.28585937 19.67 27.57171875 19.34 26.8359375 19 C18.12320708 15.45958891 9.28411946 14.77623001 0 14 C0 9.38 0 4.76 0 0 Z " fill="#FEFDFE" transform="translate(298,367)"/>
<path d="M0 0 C0.5775 0.21785156 1.155 0.43570312 1.75 0.66015625 C-2.80018587 4.57837186 -2.80018587 4.57837186 -5.3125 5.03515625 C-8.58079373 6.08944455 -9.59374591 8.80454575 -11.25 11.66015625 C-12.30511477 14.82550057 -12.52996128 17.46099986 -12.75 20.78515625 C-13.02519572 24.7165237 -13.33364568 28.62338854 -13.8125 32.53515625 C-14.25463024 36.27253845 -14.33003207 39.89864873 -14.25 43.66015625 C-13.92 43.66015625 -13.59 43.66015625 -13.25 43.66015625 C-13.207279 45.3262753 -13.20936168 46.9939851 -13.25 48.66015625 C-13.745 49.15515625 -13.745 49.15515625 -14.25 49.66015625 C-14.48701239 52.51893534 -14.67219182 55.35898922 -14.8125 58.22265625 C-14.85568359 59.02896484 -14.89886719 59.83527344 -14.94335938 60.66601562 C-15.04975262 62.6638443 -15.15040888 64.66197695 -15.25 66.66015625 C-14.59 66.66015625 -13.93 66.66015625 -13.25 66.66015625 C-13.22091643 70.07680498 -13.20317309 73.49342175 -13.1875 76.91015625 C-13.17912109 77.87824219 -13.17074219 78.84632813 -13.16210938 79.84375 C-13.15888672 80.77832031 -13.15566406 81.71289062 -13.15234375 82.67578125 C-13.14710693 83.53461914 -13.14187012 84.39345703 -13.13647461 85.27832031 C-13.24515411 87.55848642 -13.68049879 89.46035656 -14.25 91.66015625 C-14.28888349 93.99316558 -14.2948635 96.32725426 -14.25 98.66015625 C-13.92 98.66015625 -13.59 98.66015625 -13.25 98.66015625 C-13.22534254 102.77188185 -13.20716041 106.88357903 -13.19506836 110.99536133 C-13.1900292 112.39510853 -13.18319784 113.79485045 -13.17456055 115.19458008 C-13.1624768 117.20261402 -13.15730193 119.21068582 -13.15234375 121.21875 C-13.14710693 122.42845459 -13.14187012 123.63815918 -13.13647461 124.88452148 C-13.25 127.66015625 -13.25 127.66015625 -14.25 128.66015625 C-14.40582303 130.00030846 -14.50044142 131.34774528 -14.56640625 132.6953125 C-14.60830078 133.50419922 -14.65019531 134.31308594 -14.69335938 135.14648438 C-14.73267578 135.99662109 -14.77199219 136.84675781 -14.8125 137.72265625 C-14.85568359 138.57666016 -14.89886719 139.43066406 -14.94335938 140.31054688 C-15.04976702 142.42687662 -15.15041731 144.54349438 -15.25 146.66015625 C-14.59 146.66015625 -13.93 146.66015625 -13.25 146.66015625 C-13.2229957 148.11838837 -13.20360213 149.576763 -13.1875 151.03515625 C-13.17589844 151.84726562 -13.16429687 152.659375 -13.15234375 153.49609375 C-13.25 155.66015625 -13.25 155.66015625 -14.25 157.66015625 C-14.34863212 160.58409727 -14.38627056 163.48423831 -14.37939453 166.40844727 C-14.38114685 167.31421509 -14.38289917 168.21998291 -14.38470459 169.15319824 C-14.38911758 172.15683896 -14.38618729 175.16042115 -14.3828125 178.1640625 C-14.38348564 180.24389151 -14.38445575 182.32372045 -14.38571167 184.40354919 C-14.38718784 188.76570382 -14.38503643 193.12783799 -14.38037109 197.48999023 C-14.37467032 203.09486548 -14.37795553 208.69969289 -14.38394356 214.30456638 C-14.38754832 218.5997911 -14.38641104 222.89500437 -14.38381577 227.19022942 C-14.38314644 229.2575983 -14.3839751 231.3249682 -14.38629532 233.39233589 C-14.38882083 236.27533872 -14.38498285 239.15826283 -14.37939453 242.04125977 C-14.38141876 242.90414108 -14.38344299 243.7670224 -14.38552856 244.65605164 C-14.74459498 248.46608872 -14.74459498 248.46608872 -13.25 251.66015625 C-13.01807135 253.17485073 -12.83784762 254.69770187 -12.6875 256.22265625 C-12.60371094 257.04894531 -12.51992188 257.87523437 -12.43359375 258.7265625 C-12.37300781 259.36464844 -12.31242187 260.00273438 -12.25 260.66015625 C-11.59 260.66015625 -10.93 260.66015625 -10.25 260.66015625 C-9.96125 261.46453125 -9.6725 262.26890625 -9.375 263.09765625 C-8.51737432 265.79280305 -8.51737432 265.79280305 -6.25 266.66015625 C-6.25 267.32015625 -6.25 267.98015625 -6.25 268.66015625 C-5.59 268.99015625 -4.93 269.32015625 -4.25 269.66015625 C-7.71809305 269.09837012 -9.16724207 268.11074847 -11.3125 265.34765625 C-18.99708723 253.9857675 -17.67906745 239.95562632 -17.63818359 226.83398438 C-17.64225417 224.63496135 -17.64759878 222.43594036 -17.65411377 220.23692322 C-17.66773521 214.29275132 -17.66251008 208.34873647 -17.65297651 202.404562 C-17.64535308 196.16818205 -17.65243296 189.93181507 -17.65713501 183.69543457 C-17.66293329 172.55517788 -17.65364141 161.41498267 -17.638357 150.27473813 C-17.62495567 140.1953306 -17.62728434 130.11602676 -17.64111328 120.03662109 C-17.65720552 108.30226019 -17.66312386 96.56795972 -17.65427649 84.83358908 C-17.64961222 78.63277289 -17.64894078 72.43202797 -17.65888596 66.23121643 C-17.66758574 60.40015659 -17.66147871 54.56929155 -17.64420319 48.73825264 C-17.64025442 46.60503525 -17.64134461 44.47180131 -17.64799118 42.33859062 C-17.72769164 14.14834676 -17.72769164 14.14834676 -10.25 5.66015625 C-3.45173795 -0.52135625 -3.45173795 -0.52135625 0 0 Z " fill="#C1B3D9" transform="translate(428.25,384.33984375)"/>
<path d="M0 0 C0.66 0.33 1.32 0.66 2 1 C2.07016998 29.44262921 2.12302732 57.88524538 2.15543652 86.3279438 C2.17088655 99.5352277 2.19194044 112.74245772 2.22631836 125.94970703 C2.25627776 137.46497538 2.27558854 148.9802047 2.28226548 160.49551094 C2.28616665 166.58928185 2.2952961 172.68294114 2.31719017 178.77667618 C2.33765866 184.52055038 2.34381292 190.26426769 2.33932304 196.0081749 C2.34014362 198.10830286 2.34604712 200.20843646 2.35761642 202.30853271 C2.50848728 231.12563911 2.50848728 231.12563911 -5 242 C-5.33 241.01 -5.66 240.02 -6 239 C-5.00328532 237.33136654 -4.00275466 235.66501077 -3 234 C-0.13818836 222.05196543 -0.693302 209.39011132 -0.68115234 197.19360352 C-0.67183603 195.03377922 -0.66166487 192.87395846 -0.65071106 190.71414185 C-0.62358898 184.89497525 -0.60831484 179.07583261 -0.59528303 173.25661969 C-0.57957403 167.15875859 -0.55280887 161.06094586 -0.5272522 154.96311951 C-0.48060127 143.43574001 -0.4437912 131.90835127 -0.41057932 120.38092607 C-0.37226085 107.24899631 -0.32287636 94.11711531 -0.27259517 80.98522675 C-0.16947903 53.99018738 -0.08015298 26.99511664 0 0 Z " fill="#C5B9DC" transform="translate(508,409)"/>
<path d="M0 0 C-3.19496518 2.12997679 -6.05698938 3.14258883 -9.6875 4.375 C-15.94546284 6.54755757 -21.81373482 8.90377291 -27.375 12.5625 C-29.81283246 13.89750349 -31.71169369 14.49539079 -34.375 15.1875 C-41.1427019 17.10098714 -47.0589494 20.63006169 -53.17333984 24.00976562 C-55.80750258 25.43774799 -58.49452311 26.74954141 -61.1875 28.0625 C-68.03819613 31.45540228 -75.06745999 34.99903818 -81.16015625 39.6484375 C-83 41 -83 41 -85.9375 41.9375 C-89.34289565 43.1189638 -91.23886319 44.71027679 -94 47 C-95.6618655 47.94498234 -97.324583 48.88859143 -98.99609375 49.81640625 C-106.14085075 54.03640892 -112.75259058 59.24498119 -119.44140625 64.140625 C-121.65146357 65.74671246 -123.88206504 67.31549512 -126.125 68.875 C-129.03322747 70.6885739 -129.03322747 70.6885739 -130 73 C-132.96364941 74.61067903 -135.7987287 75.93290957 -139 77 C-139.33 77.99 -139.66 78.98 -140 80 C-142.109375 81.9375 -142.109375 81.9375 -144.75 84 C-145.61109375 84.680625 -146.4721875 85.36125 -147.359375 86.0625 C-150.79284378 88.58173153 -153.9505191 90.65017303 -158 92 C-158.33 92.99 -158.66 93.98 -159 95 C-160.62332967 96.38576923 -162.28724465 97.72641268 -164 99 C-164.66 98.67 -165.32 98.34 -166 98 C-160.44160559 92.10013426 -154.33491083 87.04207189 -148 82 C-147.48050781 81.58234375 -146.96101563 81.1646875 -146.42578125 80.734375 C-125.74087245 64.10631272 -103.91376017 49.36300896 -81 36 C-80.04834961 35.4426416 -79.09669922 34.8852832 -78.11621094 34.31103516 C-57.45711775 22.27519295 -36.07425181 12.14343791 -13.9375 3.125 C-12.34905273 2.47192871 -12.34905273 2.47192871 -10.72851562 1.80566406 C-9.75462891 1.41862305 -8.78074219 1.03158203 -7.77734375 0.6328125 C-6.92390381 0.29137207 -6.07046387 -0.05006836 -5.19116211 -0.40185547 C-3 -1 -3 -1 0 0 Z M-166 99 C-167.57224133 103.04425932 -170.45163022 105.50577649 -173.625 108.3125 C-174.15899414 108.79307861 -174.69298828 109.27365723 -175.24316406 109.76879883 C-176.82249871 111.18644874 -178.40947917 112.59492106 -180 114 C-180.84820312 114.75023437 -181.69640625 115.50046875 -182.5703125 116.2734375 C-184.37354126 117.85691795 -186.18210478 119.43340206 -188 121 C-188.66 120.67 -189.32 120.34 -190 120 C-184.72198623 114.62464581 -179.42129157 109.36256317 -173.6875 104.47265625 C-172.27139667 103.23684386 -170.93664801 101.90866507 -169.625 100.5625 C-168 99 -168 99 -166 99 Z " fill="#BFB1D7" transform="translate(337,32)"/>
<path d="M0 0 C0.33 0 0.66 0 1 0 C1.1610114 8.37824244 0.73595851 16.54889194 -0.1875 24.875 C-0.3882312 26.68750244 -0.3882312 26.68750244 -0.59301758 28.53662109 C-4.63604295 63.5161108 -12.47502314 97.48208813 -23.06152344 131.02050781 C-23.81170257 133.40218995 -24.54224228 135.78749822 -25.2578125 138.1796875 C-29.50098675 151.78927603 -35.43421069 164.88917888 -41 178 C-41.38623535 178.91346191 -41.7724707 179.82692383 -42.17041016 180.76806641 C-47.89613805 194.23957411 -54.30819581 207.52882233 -62 220 C-62.671875 218.328125 -62.671875 218.328125 -63 216 C-61.890625 213.484375 -61.890625 213.484375 -60.25 210.75 C-57.6465954 206.23945017 -55.6724453 201.92442227 -54 197 C-53.34 197 -52.68 197 -52 197 C-51.62875 196.0409375 -51.62875 196.0409375 -51.25 195.0625 C-50.21725658 192.53227861 -49.12667757 190.05128031 -48 187.5625 C-46.44516974 184.09138448 -45.17968768 180.6177089 -44 177 C-43.0390247 174.64776194 -42.02350541 172.32614865 -41 170 C-40.34 170 -39.68 170 -39 170 C-38.67 167.36 -38.34 164.72 -38 162 C-37.34 162 -36.68 162 -36 162 C-35.89945313 161.3503125 -35.79890625 160.700625 -35.6953125 160.03125 C-34.77901456 156.03660279 -33.33176016 152.32512707 -31.875 148.5 C-26.40930802 133.85929575 -21.20809942 119.25657609 -17.921875 103.95703125 C-17.27788855 101.02698568 -16.4650699 98.18867892 -15.57421875 95.32421875 C-6.91654982 66.99419258 -0.75831217 33.45312289 -1.03027344 3.68652344 C-1 1 -1 1 0 0 Z " fill="#BDAED5" transform="translate(1022,541)"/>
<path d="M0 0 C4.2795714 0.55242343 8.47213144 0.64592973 12.7824831 0.625 C13.99535182 0.62522329 13.99535182 0.62522329 15.23272294 0.62545109 C17.92261059 0.6247607 20.61242859 0.61693657 23.30230427 0.60913086 C25.23994629 0.60720996 27.17758882 0.60574697 29.11523151 0.60470581 C33.28228205 0.60154977 37.44931222 0.5952877 41.61635494 0.5866394 C48.23198128 0.5730579 54.84760094 0.56720896 61.46323872 0.5625 C76.72560304 0.55047034 91.98795007 0.52853854 107.25030231 0.50627136 C121.19378154 0.48599703 135.13725442 0.46792816 149.0807454 0.45805645 C154.56611567 0.45393155 160.05146576 0.44770154 165.53682613 0.43630981 C187.83637821 0.39041518 210.09490095 0.35119593 232.37139606 1.51147461 C232.37139606 1.84147461 232.37139606 2.17147461 232.37139606 2.51147461 C148.88139606 2.51147461 65.39139606 2.51147461 -20.62860394 2.51147461 C-20.62860394 2.18147461 -20.62860394 1.85147461 -20.62860394 1.51147461 C-17.96312682 1.14497151 -15.29699092 0.79306777 -12.62860394 0.44897461 C-11.51292034 0.29332031 -11.51292034 0.29332031 -10.37469769 0.13452148 C-9.26288128 -0.00566406 -9.26288128 -0.00566406 -8.12860394 -0.14868164 C-7.12313519 -0.28222046 -7.12313519 -0.28222046 -6.09735394 -0.41845703 C-3.62860394 -0.48852539 -3.62860394 -0.48852539 0 0 Z " fill="#BBADD3" transform="translate(491.6286039352417,364.488525390625)"/>
<path d="M0 0 C-0.66 0 -1.32 0 -2 0 C-2.28875 0.5775 -2.5775 1.155 -2.875 1.75 C-3.56180514 3.12361027 -4.27475225 4.48502562 -5.03169346 5.82126904 C-8.0874437 12.69683725 -7.14393077 21.82953831 -7.11352539 29.24487305 C-7.11367142 30.20232925 -7.11381744 31.15978546 -7.1139679 32.14625549 C-7.11327881 35.26810074 -7.1055341 38.3898841 -7.09765625 41.51171875 C-7.09578849 43.69318102 -7.09436628 45.87464372 -7.09336853 48.05610657 C-7.0895715 53.76554547 -7.07976558 59.47495846 -7.06866455 65.18438721 C-7.05838959 71.02331187 -7.05385793 76.86224076 -7.04882812 82.70117188 C-7.0381405 94.13412589 -7.02109831 105.56706078 -7 117 C-2.35413108 116.51515724 -2.35413108 116.51515724 2 115 C3.03769531 115.01546875 4.07539062 115.0309375 5.14453125 115.046875 C9.27202981 114.99669265 12.70057055 114.2981311 16.6875 113.25 C17.33783203 113.09273438 17.98816406 112.93546875 18.65820312 112.7734375 C22.88312959 111.65368125 25.08432794 110.18797856 28 107 C30.75 106.75 30.75 106.75 33 107 C27.31074863 114.24086539 15.67476858 116.58117902 7 118 C4.1975758 118.13894757 1.40649164 118.11951912 -1.3984375 118.078125 C-2.13280029 118.07248535 -2.86716309 118.0668457 -3.6237793 118.06103516 C-5.41590902 118.04645314 -7.20797219 118.02403972 -9 118 C-9.07023293 103.94363874 -9.12285814 89.88730488 -9.15543652 75.83080387 C-9.17107458 69.30340032 -9.19227923 62.77611488 -9.22631836 56.2487793 C-9.25897761 49.94641907 -9.276867 43.64417227 -9.28463173 37.34173393 C-9.29016341 34.9404465 -9.3009654 32.53916509 -9.31719017 30.1379261 C-9.33905124 26.7676782 -9.34196323 23.39789559 -9.34057617 20.02758789 C-9.351362 19.04071487 -9.36214783 18.05384186 -9.3732605 17.0370636 C-9.34653007 11.01223999 -8.73171171 5.46192472 -6 0 C-3.50907189 -1.24546405 -2.58919267 -0.7767578 0 0 Z " fill="#BCADD3" transform="translate(592,390)"/>
<path d="M0 0 C0.66 0 1.32 0 2 0 C0.39471095 6.13486262 -2.89147701 11.15628465 -6.1875 16.5 C-6.80463867 17.50595215 -7.42177734 18.5119043 -8.05761719 19.54833984 C-17.57228504 34.91800355 -27.70436382 49.88045478 -39 64 C-39.99 65.26070312 -39.99 65.26070312 -41 66.546875 C-48.68946961 76.28273572 -56.77784798 85.7114938 -65 95 C-65.33 94.01 -65.66 93.02 -66 92 C-65.34 92 -64.68 92 -64 92 C-63.690625 91.38125 -63.38125 90.7625 -63.0625 90.125 C-62.375 88.75 -61.6875 87.375 -61 86 C-60.34 86 -59.68 86 -59 86 C-59 85.34 -59 84.68 -59 84 C-58.34 84 -57.68 84 -57 84 C-57 82.68 -57 81.36 -57 80 C-55.02 79.01 -55.02 79.01 -53 78 C-53 77.34 -53 76.68 -53 76 C-51.125 73.875 -51.125 73.875 -49 72 C-48.34 72 -47.68 72 -47 72 C-46.731875 71.443125 -46.46375 70.88625 -46.1875 70.3125 C-43.65899622 65.38857159 -40.91919548 61.91919548 -37 58 C-35.94895617 56.36504293 -34.94011682 54.70116376 -34 53 C-33.34 52.01 -32.68 51.02 -32 50 C-31.34 50 -30.68 50 -30 50 C-29.855625 49.38125 -29.71125 48.7625 -29.5625 48.125 C-29 46 -29 46 -28 44 C-27.34 44 -26.68 44 -26 44 C-25.7525 43.319375 -25.505 42.63875 -25.25 41.9375 C-23.75802092 38.43134917 -21.93164489 35.28379632 -20 32 C-19.34 32 -18.68 32 -18 32 C-17.34 30.02 -16.68 28.04 -16 26 C-15.34 26 -14.68 26 -14 26 C-14 24.68 -14 23.36 -14 22 C-13.34 22 -12.68 22 -12 22 C-12 21.34 -12 20.68 -12 20 C-11.34 20 -10.68 20 -10 20 C-9.8453125 19.195625 -9.8453125 19.195625 -9.6875 18.375 C-8.81907303 15.37497956 -7.44379704 12.7620465 -6 10 C-5.34 10 -4.68 10 -4 10 C-3.566875 8.3603125 -3.566875 8.3603125 -3.125 6.6875 C-2 3 -2 3 0 0 Z " fill="#BEAED5" transform="translate(957,761)"/>
<path d="M0 0 C1.00282768 0.00054477 2.00565536 0.00108953 3.03887177 0.00165081 C4.18832275 -0.00254368 5.33777374 -0.00673817 6.52205658 -0.01105976 C8.42330795 -0.0026305 8.42330795 -0.0026305 10.36296844 0.00596905 C11.70662783 0.00489646 13.05028677 0.00295812 14.39394379 0.00021648 C18.05145035 -0.00464243 21.70883541 0.00303975 25.36632729 0.01316953 C29.19735961 0.02194763 33.02838808 0.02019253 36.85942841 0.01980877 C43.30236086 0.02074647 49.74524633 0.02943934 56.18816376 0.04307842 C63.61908168 0.05875175 71.04994795 0.06407838 78.48088121 0.06334287 C86.4040559 0.06266471 94.32721086 0.06962718 102.25037956 0.07878947 C104.52473146 0.0809126 106.79908013 0.08162957 109.07343292 0.08202839 C112.66522453 0.08304065 116.25697356 0.08920862 119.84875107 0.09919453 C121.78149478 0.10346263 123.71424724 0.10295199 125.64699554 0.10225201 C132.36865568 0.12671236 138.95489584 0.41208201 145.62664032 1.24888897 C145.65348711 3.89478911 145.67340389 6.54041993 145.68914032 9.18638897 C145.69751923 9.94113506 145.70589813 10.69588116 145.71453094 11.47349834 C145.72316473 13.3988321 145.67888365 15.32424478 145.62664032 17.24888897 C144.0534376 18.82209169 142.33475268 18.57831233 140.15398407 18.78404522 C139.25486298 18.87105694 138.35574188 18.95806866 137.42937469 19.04771709 C136.48384735 19.13472881 135.53832001 19.22174053 134.56414032 19.31138897 C133.61474579 19.40226788 132.66535126 19.49314678 131.68718719 19.58677959 C129.33401897 19.81145395 126.98053413 20.03197079 124.62664032 20.24888897 C124.62664032 19.58888897 124.62664032 18.92888897 124.62664032 18.24888897 C131.50309842 16.44522783 137.51503938 16.06884844 144.62664032 16.24888897 C144.62664032 11.62888897 144.62664032 7.00888897 144.62664032 2.24888897 C95.45664032 2.24888897 46.28664032 2.24888897 -4.37335968 2.24888897 C-2.37335968 0.24888897 -2.37335968 0.24888897 0 0 Z " fill="#BBADD3" transform="translate(306.3733596801758,364.7511110305786)"/>
<path d="M0 0 C0.66 0.33 1.32 0.66 2 1 C1.27554688 1.78503906 0.55109375 2.57007813 -0.1953125 3.37890625 C-7.00390984 10.76941707 -7.00390984 10.76941707 -13.6015625 18.34765625 C-20.86492812 26.92978937 -20.86492812 26.92978937 -24.1875 30.0625 C-26.1881304 32.20110491 -27.4082006 34.50692007 -28.80078125 37.06640625 C-31.64498517 41.65233766 -35.52354221 45.56239636 -39.375 49.3125 C-41.24210971 51.00922741 -41.24210971 51.00922741 -42 54 C-42.98557221 55.01422257 -43.98813887 56.01200352 -45 57 C-46.1959072 58.60360284 -47.36055352 60.23079872 -48.5 61.875 C-49.38171875 63.13957031 -49.38171875 63.13957031 -50.28125 64.4296875 C-51.93921397 66.90909726 -53.48876583 69.42905895 -55 72 C-55.99 71.67 -56.98 71.34 -58 71 C-47.15973471 55.24837249 -35.87753026 40.17497613 -23.42675781 25.66943359 C-21.93941336 23.92910824 -20.46497076 22.17844069 -18.9921875 20.42578125 C-12.95837321 13.27309483 -6.75655312 6.48748685 0 0 Z " fill="#BEAFD6" transform="translate(144,156)"/>
<path d="M0 0 C0.66 0 1.32 0 2 0 C0.76661202 3.70016395 -0.63820444 4.54703034 -3.6875 6.9375 C-7.47566935 9.95247432 -11.18229446 13.01071567 -14.81591797 16.20947266 C-25.08306599 25.22039091 -36.08124136 34.26122499 -48 41 C-48 38 -48 38 -46.8125 36.375 C-44.58593199 34.68587944 -42.74148672 34.37047118 -40 34 C-39.67 33.01 -39.34 32.02 -39 31 C-34.66666667 28 -34.66666667 28 -32 28 C-32 27.34 -32 26.68 -32 26 C-30.23505506 24.6043269 -28.41191783 23.28163478 -26.5625 22 C-22.67272925 19.54099616 -22.67272925 19.54099616 -20 16 C-15.5 13 -15.5 13 -13 13 C-12.67 12.01 -12.34 11.02 -12 10 C-11.34 10 -10.68 10 -10 10 C-10 9.34 -10 8.68 -10 8 C-8.3203125 6.4921875 -8.3203125 6.4921875 -6.125 4.875 C-5.40570312 4.33617187 -4.68640625 3.79734375 -3.9453125 3.2421875 C-2 2 -2 2 0 2 C0 1.34 0 0.68 0 0 Z " fill="#BEAED5" transform="translate(853,891)"/>
<path d="M0 0 C1.18938608 3.50419206 1.0476695 3.89837984 -0.66015625 7.5390625 C-1.44847156 8.90829471 -2.25004139 10.26995429 -3.0625 11.625 C-3.68777588 12.70394531 -3.68777588 12.70394531 -4.32568359 13.8046875 C-6.52368504 17.58093718 -8.8058893 21.29700581 -11.125 25 C-14.12185768 29.90015447 -16.33996017 35.09299706 -18.55322266 40.38085938 C-20.12549898 44.12042696 -21.88616631 47.54376044 -24 51 C-24.350625 52.0725 -24.70125 53.145 -25.0625 54.25 C-26 57 -26 57 -28 58 C-27.49529215 52.78025826 -26.18715466 48.71093904 -23.75 44.125 C-23.40791504 43.46226074 -23.06583008 42.79952148 -22.71337891 42.11669922 C-21.93284842 40.60803418 -21.14753001 39.10184022 -20.35839844 37.59765625 C-18.82015696 34.65608736 -17.30421703 31.70352457 -15.7890625 28.75 C-14.6516887 26.54133335 -13.51366776 24.33299983 -12.375 22.125 C-11.56820801 20.55709717 -11.56820801 20.55709717 -10.74511719 18.95751953 C-7.3872696 12.49135248 -3.8302941 6.19823725 0 0 Z " fill="#BEAFD6" transform="translate(72,249)"/>
<path d="M0 0 C2.57315798 4.42175105 1.66010046 7.96439138 0.8125 12.8125 C-0.92644289 23.67452148 -1.99858456 34.56473415 -2.99682617 45.51293945 C-3.17242065 47.42272583 -3.17242065 47.42272583 -3.3515625 49.37109375 C-3.45291504 50.50474365 -3.55426758 51.63839355 -3.65869141 52.80639648 C-3.98923071 55.89923245 -4.45592345 58.93819618 -5 62 C-5.33 62 -5.66 62 -6 62 C-6.26772559 51.118442 -5.48907017 40.65960432 -4.125 29.875 C-3.94845029 28.41545733 -3.77266717 26.95582173 -3.59765625 25.49609375 C-2.56330465 16.97042013 -1.36696492 8.47959801 0 0 Z " fill="#C2B4D9" transform="translate(7,423)"/>
<path d="M0 0 C15.18 0 30.36 0 46 0 C46.66 1.32 47.32 2.64 48 4 C46.79512939 3.91020874 46.79512939 3.91020874 45.56591797 3.81860352 C35.75692818 3.10129597 25.94357093 2.50528318 16.125 1.9375 C14.55077638 1.84578662 12.9765576 1.7539902 11.40234375 1.66210938 C7.60161734 1.44045269 3.80082806 1.21990642 0 1 C0 0.67 0 0.34 0 0 Z " fill="#F2EBFB" transform="translate(531,0)"/>
<path d="M0 0 C-7.86546357 5.19659502 -15.83991886 10.15241151 -24 14.875 C-25.20039917 15.5707312 -25.20039917 15.5707312 -26.42504883 16.28051758 C-30.55866653 18.65703306 -34.7079521 20.92275887 -39 23 C-39.33 22.34 -39.66 21.68 -40 21 C-34.25 18 -34.25 18 -32 18 C-32 17.34 -32 16.68 -32 16 C-30.98679687 15.51080078 -30.98679687 15.51080078 -29.953125 15.01171875 C-28.61507812 14.35623047 -28.61507812 14.35623047 -27.25 13.6875 C-25.92742188 13.04361328 -25.92742188 13.04361328 -24.578125 12.38671875 C-21.98653572 11.08563188 -21.98653572 11.08563188 -19.859375 9.33203125 C-18 8 -18 8 -15 8 C-15 7.34 -15 6.68 -15 6 C-14.071875 5.566875 -13.14375 5.13375 -12.1875 4.6875 C-9.46597307 3.24669162 -8.05731109 2.15527829 -6 0 C-3 -1 -3 -1 0 0 Z " fill="#BEAFD6" transform="translate(792,941)"/>
<path d="M0 0 C-0.05986084 0.76658936 -0.11972168 1.53317871 -0.18139648 2.32299805 C-0.84030136 10.81732166 -1.45961352 19.31403348 -2.0625 27.8125 C-2.15337891 29.08931641 -2.24425781 30.36613281 -2.33789062 31.68164062 C-2.55892371 34.78773711 -2.77962199 37.89385698 -3 41 C-3.33 41 -3.66 41 -4 41 C-4 27.8 -4 14.6 -4 1 C-2 0 -2 0 0 0 Z " fill="#F3ECFC" transform="translate(4,447)"/>
<path d="M0 0 C-0.33 0.66 -0.66 1.32 -1 2 C-5.48973119 3.38074349 -10.15122088 3.12745237 -14.80078125 3.09765625 C-15.63715622 3.0962413 -16.47353119 3.09482635 -17.33525085 3.09336853 C-19.994371 3.08779184 -22.6534055 3.07524365 -25.3125 3.0625 C-27.12044149 3.05748199 -28.9283843 3.05291961 -30.73632812 3.04882812 C-35.15758484 3.03783004 -39.57877793 3.0205815 -44 3 C-44 2.67 -44 2.34 -44 2 C-39.66275187 1.71013059 -35.32519541 1.42555609 -30.98730469 1.14550781 C-29.51716145 1.04989396 -28.0471053 0.95292975 -26.57714844 0.85449219 C-17.71072194 0.26178428 -8.89167589 -0.15352534 0 0 Z " fill="#F2EAFB" transform="translate(575,1021)"/>
<path d="M0 0 C5.43909348 1.76770538 5.43909348 1.76770538 7.93359375 2.80078125 C12.54215916 4.69631205 16.01718925 5.31142567 21 5 C21 5.66 21 6.32 21 7 C21.90363281 6.97679687 22.80726563 6.95359375 23.73828125 6.9296875 C24.91777344 6.91164063 26.09726562 6.89359375 27.3125 6.875 C29.07013672 6.84019531 29.07013672 6.84019531 30.86328125 6.8046875 C34 7 34 7 37 9 C11.3423784 9.5794695 11.3423784 9.5794695 2 3 C1.34 2.01 0.68 1.02 0 0 Z " fill="#BEB0D4" transform="translate(591,651)"/>
<path d="M0 0 C1.41750563 0.11509661 2.83401169 0.24253658 4.25 0.375 C5.03890625 0.44460938 5.8278125 0.51421875 6.640625 0.5859375 C9 1 9 1 10.859375 1.97265625 C13.84378319 3.40495434 16.72472243 3.64962073 20 4.0625 C27.5815486 5.03428748 27.5815486 5.03428748 31 6 C31 6.66 31 7.32 31 8 C32.98 8 34.96 8 37 8 C37 8.66 37 9.32 37 10 C29.33701732 9.29458041 22.01568118 7.42864582 14.5625 5.5625 C13.25851895 5.24651603 11.95448289 4.93075902 10.65039062 4.61523438 C9.42642578 4.31037109 8.20246094 4.00550781 6.94140625 3.69140625 C5.82451416 3.41498291 4.70762207 3.13855957 3.55688477 2.85375977 C1 2 1 2 0 0 Z " fill="#C1B1D8" transform="translate(370,1003)"/>
<path d="M0 0 C0.33 0 0.66 0 1 0 C1.07402368 5.65996416 1.12854173 11.31964811 1.16479492 16.97998047 C1.17990395 18.90646267 1.20039214 20.83291035 1.22631836 22.75927734 C1.26260925 25.52450057 1.27970479 28.28927004 1.29296875 31.0546875 C1.30845261 31.9193161 1.32393646 32.7839447 1.33988953 33.67477417 C1.34057617 36.10107422 1.34057617 36.10107422 1 40 C0.01 40.66 -0.98 41.32 -2 42 C-2.02757191 40.33343119 -2.04664803 38.66672149 -2.0625 37 C-2.07410156 36.071875 -2.08570313 35.14375 -2.09765625 34.1875 C-2.00576228 31.18808085 -1.65472435 28.29530575 -1.25610352 25.32421875 C-0.73194239 20.56729411 -0.6199647 15.77997696 -0.4375 11 C-0.39431641 9.93910156 -0.35113281 8.87820313 -0.30664062 7.78515625 C-0.20144004 5.19020849 -0.09929881 2.59517916 0 0 Z " fill="#F0E7FB" transform="translate(1023,530)"/>
<path d="M0 0 C-4.55018587 3.91821561 -4.55018587 3.91821561 -7.0625 4.375 C-9.63945874 5.20627701 -10.7128951 6.71303622 -12.1171875 8.96875 C-13.90851091 13.09037908 -14.40143122 17.57374141 -15 22 C-15.99 22.33 -16.98 22.66 -18 23 C-17.66503302 15.76471321 -16.44913144 9.54151889 -11.25 4.203125 C-4.80053191 -1.44015957 -4.80053191 -1.44015957 0 0 Z " fill="#BEB0D5" transform="translate(430,385)"/>
<path d="M0 0 C0.66 0.99 1.32 1.98 2 3 C1.41769282 5.50332056 0.75210461 7.72704969 -0.125 10.125 C-0.36001221 10.79789062 -0.59502441 11.47078125 -0.8371582 12.1640625 C-2.39994832 16.56420253 -4.17033198 20.82976701 -6.15234375 25.05859375 C-7.42373342 27.97048622 -8.21484241 30.92479943 -9 34 C-9.66 34 -10.32 34 -11 34 C-8.97359864 26.12667751 -6.52967236 18.47266584 -3.8125 10.8125 C-3.44447266 9.76513672 -3.07644531 8.71777344 -2.69726562 7.63867188 C-1.80158738 5.09122337 -0.90246184 2.54505148 0 0 Z " fill="#C0B2D8" transform="translate(33,329)"/>
<path d="M0 0 C0.33 0 0.66 0 1 0 C1.06058594 0.74765625 1.12117187 1.4953125 1.18359375 2.265625 C1.26738281 3.25046875 1.35117187 4.2353125 1.4375 5.25 C1.51871094 6.22453125 1.59992187 7.1990625 1.68359375 8.203125 C1.91768519 10.90163656 1.91768519 10.90163656 2.55859375 13.06640625 C3.09444034 15.41369883 2.91663198 17.30321148 2.625 19.6875 C2.53476562 20.47511719 2.44453125 21.26273438 2.3515625 22.07421875 C2 24 2 24 1 25 C-1.35313555 25.07271741 -3.70833668 25.08370868 -6.0625 25.0625 C-7.35285156 25.05347656 -8.64320313 25.04445313 -9.97265625 25.03515625 C-10.97167969 25.02355469 -11.97070312 25.01195312 -13 25 C-13.33 24.34 -13.66 23.68 -14 23 C-9.38 23 -4.76 23 0 23 C0 15.41 0 7.82 0 0 Z " fill="#BFB0D7" transform="translate(662,570)"/>
<path d="M0 0 C0 0.33 0 0.66 0 1 C-3.16641449 1.48084266 -6.33317593 1.95936294 -9.5 2.4375 C-10.8303125 2.63956055 -10.8303125 2.63956055 -12.1875 2.84570312 C-27.42725515 5.1428721 -27.42725515 5.1428721 -34.5 5.0625 C-35.5415625 5.05347656 -36.583125 5.04445313 -37.65625 5.03515625 C-38.81640625 5.01775391 -38.81640625 5.01775391 -40 5 C-40 4.67 -40 4.34 -40 4 C-32.2322425 2.66757444 -24.46376587 1.67101179 -16.625 0.875 C-15.35994629 0.74375732 -15.35994629 0.74375732 -14.06933594 0.60986328 C-9.35282357 0.14605112 -4.7389119 -0.08941343 0 0 Z " fill="#BCADD5" transform="translate(591,1017)"/>
<path d="M0 0 C3.69906568 0.61997839 6.84651667 1.66506395 10.2734375 3.1796875 C11.2634375 3.61410156 12.2534375 4.04851563 13.2734375 4.49609375 C14.29695312 4.95113281 15.32046875 5.40617187 16.375 5.875 C18.40361049 6.76830944 20.4322555 7.66154049 22.4609375 8.5546875 C23.41323242 8.97588867 24.36552734 9.39708984 25.34667969 9.83105469 C28.55467847 11.24436884 31.7741931 12.62789622 35 14 C34.34 14.66 33.68 15.32 33 16 C28.2987577 13.96733726 23.67447631 11.85493726 19.125 9.5 C14.65680147 7.22044957 10.11394189 5.54208758 5.34765625 3.9921875 C2.94741283 2.97777514 1.67932373 1.96198218 0 0 Z " fill="#BEB0D5" transform="translate(702,37)"/>
<path d="M0 0 C7.92870668 7.84405856 15.33059078 16.05592472 22 25 C19 25 19 25 16 23 C14.8125 19.875 14.8125 19.875 14 17 C13.01 17 12.02 17 11 17 C10.0234375 15.20963542 9.046875 13.41927083 8.0703125 11.62890625 C7.08589976 9.83381685 7.08589976 9.83381685 5 9 C5 8.34 5 7.68 5 7 C4.34 7 3.68 7 3 7 C0.70351351 4.4385343 0 3.52032428 0 0 Z " fill="#BEAFD4" transform="translate(896,174)"/>
<path d="M0 0 C1.65 0 3.3 0 5 0 C5 0.66 5 1.32 5 2 C5.61746094 2.17015625 6.23492187 2.3403125 6.87109375 2.515625 C14.73206749 4.76503605 22.09963456 7.54815133 29 12 C25.10656341 13.2978122 23.97769684 12.39961497 20.2734375 10.76171875 C18.6028125 10.02598633 18.6028125 10.02598633 16.8984375 9.27539062 C15.15433594 8.48938477 15.15433594 8.48938477 13.375 7.6875 C12.20453125 7.17509766 11.0340625 6.66269531 9.828125 6.13476562 C1.13322046 2.26644093 1.13322046 2.26644093 0 0 Z " fill="#BDAED6" transform="translate(291,973)"/>
<path d="M0 0 C0.33 0 0.66 0 1 0 C1.02685095 2.47923801 1.04676547 4.9581884 1.0625 7.4375 C1.07087891 8.14455078 1.07925781 8.85160156 1.08789062 9.58007812 C1.09653588 11.38693559 1.05220011 13.19387603 1 15 C-0.57320272 16.57320272 -2.29188764 16.32942336 -4.47265625 16.53515625 C-5.37177734 16.62216797 -6.27089844 16.70917969 -7.19726562 16.79882812 C-8.14279297 16.88583984 -9.08832031 16.97285156 -10.0625 17.0625 C-11.01189453 17.15337891 -11.96128906 17.24425781 -12.93945312 17.33789062 C-15.29262135 17.56256498 -17.64610619 17.78308182 -20 18 C-20 17.34 -20 16.68 -20 16 C-13.1235419 14.19633886 -7.11160094 13.81995947 0 14 C0 9.38 0 4.76 0 0 Z " fill="#C4B7D8" transform="translate(451,367)"/>
<path d="M0 0 C11.90081553 1.03485352 20.63885386 7.13320315 30 14 C29.01 14.495 29.01 14.495 28 15 C25.69611859 13.78029808 23.55624365 12.38964592 21.421875 10.89453125 C14.78913976 6.43906345 7.43173804 3.81593199 0 1 C0 0.67 0 0.34 0 0 Z " fill="#BCADD3" transform="translate(658,391)"/>
<path d="M0 0 C0.66 0 1.32 0 2 0 C3.65625 2.265625 3.65625 2.265625 5.5 5.25 C6.1084375 6.22453125 6.716875 7.1990625 7.34375 8.203125 C9 11 9 11 10.09375 13.296875 C10.88747203 15.18520426 10.88747203 15.18520426 13 16 C14 19 14 19 15 22 C15.66 22.33 16.32 22.66 17 23 C16.67 24.32 16.34 25.64 16 27 C14.0768959 24.00408241 12.16273373 21.00254714 10.25 18 C9.71117188 17.16082031 9.17234375 16.32164062 8.6171875 15.45703125 C5.41867817 10.42522999 2.56663894 5.38246612 0 0 Z " fill="#BEAFD5" transform="translate(68,767)"/>
<path d="M0 0 C0.99 0 1.98 0 3 0 C3 0.99 3 1.98 3 3 C4.32 3.33 5.64 3.66 7 4 C7 5.32 7 6.64 7 8 C7.66 8 8.32 8 9 8 C11.125 9.8125 11.125 9.8125 13 12 C13 12.99 13 13.98 13 15 C13.639375 15.2475 14.27875 15.495 14.9375 15.75 C17 17 17 17 17.62890625 19.078125 C17.75136719 19.71234375 17.87382813 20.3465625 18 21 C10.87528473 15.39118159 3.72646706 8.39933846 0 0 Z " fill="#BFB0D6" transform="translate(110,829)"/>
<path d="M0 0 C-3.65171388 1.98235896 -6.87622422 2.47515581 -11 3 C-11.99 3.33 -12.98 3.66 -14 4 C-16.33299825 4.03954234 -18.66708189 4.04401732 -21 4 C-21 3.67 -21 3.34 -21 3 C-23.97 2.505 -23.97 2.505 -27 2 C-27 1.67 -27 1.34 -27 1 C-17.98978127 0.41464936 -9.0343984 -0.14340315 0 0 Z " fill="#BFAFDA" transform="translate(487,1)"/>
<path d="M0 0 C1 2 1 2 0.3984375 4.390625 C-2.21337421 11.6877478 -4.32577938 16.92025248 -11.3125 20.875 C-12.6428125 21.431875 -12.6428125 21.431875 -14 22 C-12.43865142 17.78435883 -9.38128204 15.80574467 -6 13 C-5.67 12.01 -5.34 11.02 -5 10 C-4.34 10 -3.68 10 -3 10 C-2.87625 9.278125 -2.7525 8.55625 -2.625 7.8125 C-2.0095069 5.04278106 -1.11555626 2.6029646 0 0 Z " fill="#C2B5D6" transform="translate(336,635)"/>
<path d="M0 0 C-3.78424179 2.52282786 -7.72046895 4.02402293 -11.9375 5.6875 C-12.74896484 6.02072266 -13.56042969 6.35394531 -14.39648438 6.69726562 C-15.18216797 7.00728516 -15.96785156 7.31730469 -16.77734375 7.63671875 C-17.84843384 8.06537231 -17.84843384 8.06537231 -18.94116211 8.50268555 C-21.31863975 9.07696777 -22.70710752 8.77289597 -25 8 C-6.70988569 -0.64934378 -6.70988569 -0.64934378 0 0 Z " fill="#BEAFD6" transform="translate(705,986)"/>
<path d="M0 0 C-17.85649203 5.74031891 -17.85649203 5.74031891 -26 5 C-21.80705067 2.7545343 -17.61509117 1.83357049 -13 0.8125 C-12.19304687 0.62236328 -11.38609375 0.43222656 -10.5546875 0.23632812 C-9.77351563 0.06166016 -8.99234375 -0.11300781 -8.1875 -0.29296875 C-7.12595703 -0.53309692 -7.12595703 -0.53309692 -6.04296875 -0.77807617 C-3.77757441 -1.02416167 -2.16111753 -0.67656334 0 0 Z " fill="#C2B4D9" transform="translate(408,12)"/>
<path d="M0 0 C2 1 2 1 2.74609375 2.64233398 C3.08833984 3.68369507 3.08833984 3.68369507 3.4375 4.74609375 C3.69273438 5.50083984 3.94796875 6.25558594 4.2109375 7.03320312 C4.47132812 7.82662109 4.73171875 8.62003906 5 9.4375 C5.51546407 11.00047892 6.03607904 12.56177105 6.5625 14.12109375 C6.79066406 14.8164624 7.01882812 15.51183105 7.25390625 16.22827148 C7.9563945 18.20789534 7.9563945 18.20789534 10 20 C10.125 23.125 10.125 23.125 10 26 C7.73296582 23.2086368 6.34706652 20.69852483 5.17578125 17.3046875 C4.86962891 16.42425781 4.56347656 15.54382813 4.24804688 14.63671875 C3.93931641 13.72535156 3.63058594 12.81398438 3.3125 11.875 C2.99216797 10.95589844 2.67183594 10.03679688 2.34179688 9.08984375 C0 2.28914579 0 2.28914579 0 0 Z " fill="#BFB0D7" transform="translate(29,681)"/>
<path d="M0 0 C0.33 0 0.66 0 1 0 C1 1.65 1 3.3 1 5 C0.0409375 5.37125 0.0409375 5.37125 -0.9375 5.75 C-3.15962123 6.7658714 -3.15962123 6.7658714 -3.4375 8.75 C-4.15588001 11.62352004 -5.50755888 13.73562713 -7.0625 16.25 C-7.61035156 17.14203125 -8.15820312 18.0340625 -8.72265625 18.953125 C-9.14417969 19.62859375 -9.56570312 20.3040625 -10 21 C-11 18 -11 18 -10.11962891 16.00708008 C-9.43006104 14.89949341 -9.43006104 14.89949341 -8.7265625 13.76953125 C-8.2315625 12.96708984 -7.7365625 12.16464844 -7.2265625 11.33789062 C-6.69804688 10.50451172 -6.16953125 9.67113281 -5.625 8.8125 C-5.10421875 7.96751953 -4.5834375 7.12253906 -4.046875 6.25195312 C-1.23822975 1.74429579 -1.23822975 1.74429579 0 0 Z " fill="#BFB0D6" transform="translate(85,228)"/>
<path d="M0 0 C-3.77294121 3.77294121 -9.36135144 3.9412144 -14.484375 4.125 C-17.65879756 4.125 -20.82689243 4.08827811 -24 4 C-24 3.67 -24 3.34 -24 3 C-23.27554687 2.96261719 -22.55109375 2.92523437 -21.8046875 2.88671875 C-15.56606847 2.49293682 -15.56606847 2.49293682 -9.75 0.375 C-6.14457992 -1.42771004 -3.85883285 -0.84894323 0 0 Z " fill="#B9AAD2" transform="translate(322,656)"/>
<path d="M0 0 C2.86957408 3.37596951 4.25509829 6.84944936 5.75 11 C6.42289063 12.8253125 6.42289063 12.8253125 7.109375 14.6875 C7.94239934 17.78576596 8.19047957 19.09639129 7 22 C4.91499839 18.87249759 4.02464775 16.2713673 2.9375 12.6875 C2.59589844 11.57761719 2.25429688 10.46773438 1.90234375 9.32421875 C1.05995345 6.22086748 0.46653587 3.17917745 0 0 Z " fill="#C1B3D7" transform="translate(988,325)"/>
<path d="M0 0 C0.66 0 1.32 0 2 0 C2.90375653 6.32629569 2.90375653 11.67370431 2 18 C1.67 18 1.34 18 1 18 C0.22959149 11.93303301 -0.09706112 6.11485027 0 0 Z " fill="#C2B2DB" transform="translate(1,543)"/>
<path d="M0 0 C4.75 1.875 4.75 1.875 7 3 C7 3.66 7 4.32 7 5 C7.70125 5.185625 8.4025 5.37125 9.125 5.5625 C13.09640051 7.54820026 15.3073418 10.53933276 18 14 C14.01413662 12.26787171 10.72300226 9.6438002 7.3125 7 C6.42208008 6.32324219 6.42208008 6.32324219 5.51367188 5.6328125 C1.12498551 2.24997101 1.12498551 2.24997101 0 0 Z " fill="#BEB0D5" transform="translate(192,911)"/>
<path d="M0 0 C6.91133679 3.01762592 12.03377388 6.2937733 17 12 C16.67 12.66 16.34 13.32 16 14 C15.401875 13.360625 14.80375 12.72125 14.1875 12.0625 C12.09189663 9.79689611 12.09189663 9.79689611 9 9 C7.33333333 7.33333333 5.66666667 5.66666667 4 4 C1.83379456 2.70480005 1.83379456 2.70480005 0 2 C0 1.34 0 0.68 0 0 Z " fill="#BFB2D4" transform="translate(616,532)"/>
<path d="M0 0 C4.18441341 1.39480447 5.50674116 4.36739247 7.75 7.9375 C8.17410156 8.58396484 8.59820312 9.23042969 9.03515625 9.89648438 C10.09285685 11.55538613 11.05468148 13.27458455 12 15 C11.67 15.66 11.34 16.32 11 17 C9.5345138 15.10934188 8.07765297 13.21298003 6.625 11.3125 C6.2125 10.78205078 5.8 10.25160156 5.375 9.70507812 C3.00906418 6.59501734 1.25144944 3.70621566 0 0 Z " fill="#BDB0D4" transform="translate(85,794)"/>
<path d="M0 0 C0.33 0 0.66 0 1 0 C1.52923572 2.12292296 2.04815377 4.24842051 2.5625 6.375 C2.85253906 7.55835938 3.14257812 8.74171875 3.44140625 9.9609375 C4 13 4 13 3 15 C2.93003986 16.70702735 2.91559846 18.41668003 2.9375 20.125 C2.95103516 21.49011719 2.95103516 21.49011719 2.96484375 22.8828125 C2.97644531 23.58148437 2.98804688 24.28015625 3 25 C2.67 25 2.34 25 2 25 C1.66068773 22.33397504 1.32842824 19.66736986 1 17 C0.90460937 16.25621094 0.80921875 15.51242187 0.7109375 14.74609375 C0.10772324 9.79111949 -0.09075591 4.99157504 0 0 Z " fill="#BFB0D6" transform="translate(3,564)"/>
<path d="M0 0 C3.14952839 0.6998952 6.0652503 1.65160149 9 3 C9.33 3.66 9.66 4.32 10 5 C10.825 5.495 11.65 5.99 12.5 6.5 C15 8 15 8 16 10 C12.06342758 8.56786488 8.71068644 6.69667846 5.1875 4.4375 C4.21167969 3.81746094 3.23585937 3.19742188 2.23046875 2.55859375 C1.49441406 2.04425781 0.75835937 1.52992188 0 1 C0 0.67 0 0.34 0 0 Z " fill="#BDB0D6" transform="translate(240,945)"/>
<path d="M0 0 C6.37173005 0.34134268 11.06713249 1.78869556 16 6 C16 6.66 16 7.32 16 8 C14.68 7.67 13.36 7.34 12 7 C12 6.34 12 5.68 12 5 C11.30132812 4.80664062 10.60265625 4.61328125 9.8828125 4.4140625 C8.51769531 4.02347656 8.51769531 4.02347656 7.125 3.625 C5.76761719 3.24214844 5.76761719 3.24214844 4.3828125 2.8515625 C2 2 2 2 0 0 Z " fill="#BBACD2" transform="translate(487,383)"/>
<path d="M0 0 C3.63 0.66 7.26 1.32 11 2 C11 2.66 11 3.32 11 4 C12.98 4.66 14.96 5.32 17 6 C15 7 15 7 11.77734375 6.07421875 C10.49453658 5.61997447 9.21466818 5.15736546 7.9375 4.6875 C7.28716797 4.46126953 6.63683594 4.23503906 5.96679688 4.00195312 C1.1272371 2.25447421 1.1272371 2.25447421 0 0 Z " fill="#BFB0D6" transform="translate(334,991)"/>
<path d="M0 0 C5.31027254 1.46032495 9.46330032 3.98320986 14 7 C13.67 7.99 13.34 8.98 13 10 C10.8304939 8.52485505 8.66436293 7.0451561 6.5 5.5625 C5.87996094 5.14162109 5.25992188 4.72074219 4.62109375 4.28710938 C3.06289602 3.21691863 1.52921949 2.11120482 0 1 C0 0.67 0 0.34 0 0 Z " fill="#BFB0D6" transform="translate(217,930)"/>
<path d="M0 0 C4.13621084 3.3810038 7.81316569 6.66590534 11 11 C10.34 11.66 9.68 12.32 9 13 C8.67 11.68 8.34 10.36 8 9 C7.01 9 6.02 9 5 9 C4.67 7.68 4.34 6.36 4 5 C3.34 5 2.68 5 2 5 C2 4.34 2 3.68 2 3 C1.34 3 0.68 3 0 3 C0 2.01 0 1.02 0 0 Z " fill="#BEAFD7" transform="translate(883,160)"/>
<path d="M0 0 C1.60568666 0.28317926 3.20952047 0.57687791 4.8125 0.875 C6.15248047 1.11863281 6.15248047 1.11863281 7.51953125 1.3671875 C10 2 10 2 13 4 C10.31143576 5.00821159 8.58296785 5.22736824 5.88671875 4.17578125 C3.89205069 3.16604698 1.9353228 2.11893353 0 1 C0 0.67 0 0.34 0 0 Z " fill="#BFB0D8" transform="translate(321,986)"/>
<path d="M0 0 C4.14298667 0.59834725 7.18194377 2.00664285 10.8125 4.0625 C11.78832031 4.61035156 12.76414062 5.15820312 13.76953125 5.72265625 C14.50558594 6.14417969 15.24164063 6.56570313 16 7 C15.34 7.66 14.68 8.32 14 9 C7.07 5.04 7.07 5.04 0 1 C0 0.67 0 0.34 0 0 Z " fill="#BFB0D8" transform="translate(256,955)"/>
<path d="M0 0 C0.66 0.66 1.32 1.32 2 2 C-1.63 4.31 -5.26 6.62 -9 9 C-9.33 8.34 -9.66 7.68 -10 7 C-8.71186658 6.16121545 -7.41936744 5.32913217 -6.125 4.5 C-5.40570312 4.0359375 -4.68640625 3.571875 -3.9453125 3.09375 C-2 2 -2 2 0 2 C0 1.34 0 0.68 0 0 Z " fill="#C0B0D5" transform="translate(802,931)"/>
<path d="M0 0 C2.35716404 2.15454249 3.78966144 4.19719874 5.1875 7.0625 C5.53167969 7.75472656 5.87585938 8.44695313 6.23046875 9.16015625 C7 11 7 11 7 13 C6.01 13 5.02 13 4 13 C3.51891725 11.58398286 3.04021859 10.16715563 2.5625 8.75 C2.29566406 7.96109375 2.02882813 7.1721875 1.75390625 6.359375 C1.08045292 4.25178012 0.50849405 2.15246027 0 0 Z " fill="#BEB1D6" transform="translate(635,549)"/>
<path d="M0 0 C0.81210937 0.29003906 1.62421875 0.58007812 2.4609375 0.87890625 C3.27820313 1.16636719 4.09546875 1.45382812 4.9375 1.75 C5.56398438 1.97816406 6.19046875 2.20632813 6.8359375 2.44140625 C6.8359375 3.10140625 6.8359375 3.76140625 6.8359375 4.44140625 C5.37578459 4.15898984 3.91783957 3.86514011 2.4609375 3.56640625 C1.64882813 3.40398438 0.83671875 3.2415625 0 3.07421875 C-2.1640625 2.44140625 -2.1640625 2.44140625 -4.1640625 0.44140625 C-2.1640625 -0.55859375 -2.1640625 -0.55859375 0 0 Z " fill="#BDAFD6" transform="translate(357.1640625,997.55859375)"/>
<path d="M0 0 C3.93673644 1.31224548 6.22719294 2.91910327 9 6 C8.67 6.99 8.34 7.98 8 9 C6.66368764 7.6905332 5.33102075 6.37734515 4 5.0625 C3.2575 4.33160156 2.515 3.60070312 1.75 2.84765625 C0 1 0 1 0 0 Z " fill="#BFAFD8" transform="translate(162,885)"/>
<path d="M0 0 C0.66 0 1.32 0 2 0 C0.44396229 3.81936528 -1.95604931 6.26044438 -5 9 C-5.66 9 -6.32 9 -7 9 C-7 8.34 -7 7.68 -7 7 C-6.34 7 -5.68 7 -5 7 C-4.67 6.01 -4.34 5.02 -4 4 C-3.34 4 -2.68 4 -2 4 C-2 3.34 -2 2.68 -2 2 C-1.34 2 -0.68 2 0 2 C0 1.34 0 0.68 0 0 Z " fill="#C1B1D7" transform="translate(882,863)"/>
<path d="M0 0 C2.96052484 3.36423277 3.92289822 6.69159287 5 11 C4.01 11.495 4.01 11.495 3 12 C2.814375 11.071875 2.814375 11.071875 2.625 10.125 C2.12802644 7.80879168 2.12802644 7.80879168 0 6 C-0.125 2.875 -0.125 2.875 0 0 Z " fill="#C0B2D8" transform="translate(982,310)"/>
<path d="M0 0 C1.29608947 0.93137592 2.58671632 1.8703566 3.875 2.8125 C4.59429688 3.33457031 5.31359375 3.85664062 6.0546875 4.39453125 C8 6 8 6 10 9 C8.65686601 8.35330586 7.32608822 7.68096422 6 7 C4.6696875 6.319375 4.6696875 6.319375 3.3125 5.625 C0.65063719 3.75450181 0.57269174 3.05855149 0 0 Z " fill="#BDB0D4" transform="translate(840,119)"/>
<path d="M0 0 C4.571279 0.54855348 8.67435795 1.41744803 13 3 C13 3.33 13 3.66 13 4 C7.73946963 4.31563182 4.55426184 3.66590937 0 1 C0 0.67 0 0.34 0 0 Z " fill="#BFB1D7" transform="translate(668,25)"/>
<path d="M0 0 C1.9789756 3.63616656 2.5251065 6.88425629 3 11 C2.34 11 1.68 11 1 11 C-0.20272819 8.59454362 -0.10071472 7.05003047 -0.0625 4.375 C-0.05347656 3.55773437 -0.04445313 2.74046875 -0.03515625 1.8984375 C-0.02355469 1.27195312 -0.01195312 0.64546875 0 0 Z " fill="#C3B5D7" transform="translate(1008,386)"/>
<path d="M0 0 C3.63 0 7.26 0 11 0 C8.05096298 1.96602468 6.48032201 2.73897585 3 3 C2.01 2.01 1.02 1.02 0 0 Z " fill="#C3B6D7" transform="translate(298,381)"/>
<path d="M0 0 C3.33537489 1.11179163 4.63707344 2.47411298 7 5 C6.67 5.99 6.34 6.98 6 8 C4.99403703 7.0479279 3.99538437 6.08812654 3 5.125 C2.443125 4.59132813 1.88625 4.05765625 1.3125 3.5078125 C0 2 0 2 0 0 Z " fill="#C1B3D8" transform="translate(145,868)"/>
<path d="M0 0 C0 0.66 0 1.32 0 2 C-3.50776784 3.60355101 -6.14354879 4.22036864 -10 4 C-6.74659338 1.32755885 -4.23938937 0 0 0 Z " fill="#BBABD2" transform="translate(494,655)"/>
</svg>
